<?xml version="1.0" standalone="no"?>
<!DOCTYPE svg PUBLIC "-//W3C//DTD SVG 20010904//EN"
 "http://www.w3.org/TR/2001/REC-SVG-20010904/DTD/svg10.dtd">
<svg version="1.0" xmlns="http://www.w3.org/2000/svg"
 width="880.000000pt" height="239.000000pt" viewBox="0 0 880.000000 239.000000"
 preserveAspectRatio="xMidYMid meet">
<metadata>
Created by potrace 1.16, written by Peter Selinger 2001-2019
</metadata>
<g transform="translate(0.000000,239.000000) scale(0.100000,-0.100000)"
fill="#000000" stroke="none">
<path d="M3954 2370 c-82 -41 -187 -174 -256 -326 l-33 -74 -152 0 c-84 0
-153 2 -153 4 0 2 26 20 58 41 124 83 227 217 220 287 l-3 33 -60 0 c-48 0
-74 -7 -128 -33 -105 -52 -176 -125 -232 -237 -25 -52 -51 -97 -56 -101 -6 -3
-101 -12 -212 -20 -111 -8 -210 -17 -219 -20 -10 -3 -18 -1 -18 5 0 6 7 11 16
11 8 0 12 5 9 10 -3 6 -2 10 3 10 21 0 141 129 166 177 34 67 45 153 22 172
-25 21 -83 8 -152 -32 -112 -66 -162 -132 -219 -290 -24 -69 -60 -107 -98
-107 -26 0 -46 16 -126 99 -107 110 -161 142 -275 162 -91 15 -146 1 -146 -38
0 -38 56 -119 105 -153 40 -28 113 -64 183 -90 43 -17 36 -20 -101 -55 -59
-14 -142 -37 -185 -51 -42 -13 -83 -24 -91 -24 -8 0 -44 28 -80 63 -117 113
-200 147 -358 147 -70 0 -95 -4 -107 -16 -27 -26 -19 -57 27 -101 53 -52 128
-92 234 -123 74 -22 105 -40 71 -40 -7 0 -67 -20 -133 -45 l-119 -45 -36 34
c-127 122 -234 198 -312 221 -108 32 -158 13 -158 -60 0 -55 33 -96 123 -153
56 -35 205 -91 246 -92 14 -1 -35 -27 -251 -131 l-67 -32 -48 31 c-147 94
-295 120 -440 76 -51 -16 -103 -60 -103 -87 0 -20 40 -53 80 -65 66 -21 202
-42 266 -42 35 0 64 -3 64 -7 0 -5 -31 -26 -68 -47 -37 -22 -111 -68 -165
-104 -64 -41 -125 -72 -172 -87 -40 -12 -91 -33 -112 -46 -135 -83 -254 -281
-182 -304 91 -29 274 103 360 261 40 72 92 123 166 162 33 18 34 15 12 -28
-33 -62 -49 -138 -49 -230 0 -107 27 -173 74 -178 57 -7 121 83 151 213 19 78
19 209 0 270 -8 27 -12 52 -9 56 11 19 184 115 296 165 68 30 131 59 141 65
11 6 21 8 24 6 4 -5 -55 -107 -68 -117 -12 -10 -39 -76 -55 -139 -11 -45 -14
-83 -9 -124 10 -93 18 -107 62 -107 32 0 44 8 89 54 97 100 143 226 150 410 2
55 7 103 11 107 11 10 136 60 140 56 1 -2 -8 -37 -22 -78 -35 -102 -45 -182
-34 -272 13 -107 46 -177 84 -177 22 0 75 50 96 91 11 22 26 85 35 140 15 106
12 182 -11 278 -8 30 -12 58 -9 62 5 9 88 35 219 69 44 11 89 23 100 26 12 4
-4 -19 -41 -57 -34 -35 -69 -80 -79 -99 -38 -74 -57 -191 -33 -206 21 -13 90
-4 123 16 50 31 156 149 189 209 16 30 37 86 47 125 10 39 26 76 35 83 9 6 42
15 73 18 72 8 201 31 318 56 51 10 113 19 137 19 42 0 46 -2 74 -48 46 -75 87
-117 163 -168 127 -84 253 -116 307 -78 30 20 28 41 -9 100 -50 79 -103 127
-184 164 -41 19 -75 38 -75 41 0 7 233 29 306 29 l52 0 6 -57 c17 -150 77
-305 148 -386 65 -74 144 -101 168 -58 24 46 1 220 -41 302 -12 24 -51 81 -86
127 l-64 82 48 -1 c26 0 68 -4 92 -7 43 -7 44 -8 57 -59 52 -204 270 -432 402
-421 l37 3 0 76 c-1 123 -45 193 -196 314 -93 75 -100 71 98 55 129 -11 267
-32 334 -52 36 -10 37 -12 43 -72 12 -113 55 -219 128 -310 68 -86 151 -131
197 -107 18 10 21 20 21 80 0 110 -60 242 -146 324 -21 20 -36 38 -33 41 8 8
158 -31 182 -47 12 -8 40 -32 62 -52 102 -95 212 -144 345 -152 85 -6 88 -5
104 19 9 15 14 33 10 43 -17 44 -130 131 -217 167 -42 18 -76 22 -181 25 -71
1 -143 7 -160 13 -29 9 -312 70 -328 70 -23 0 -2 20 38 35 57 22 208 104 212
116 2 5 9 9 16 9 21 0 65 54 72 87 6 28 3 33 -27 49 -42 21 -147 22 -221 0
-30 -8 -81 -33 -113 -54 -58 -37 -154 -131 -185 -181 l-15 -23 -160 16 c-237
24 -228 20 -154 68 82 52 158 133 199 209 27 51 32 69 27 107 -8 73 -54 91
-133 52z m86 -35 c45 -54 -101 -245 -242 -316 -33 -17 -64 -29 -69 -27 -5 2
12 45 37 96 92 181 227 303 274 247z m-445 -45 c11 -17 -45 -101 -109 -166
-73 -72 -248 -169 -254 -139 -6 26 48 126 96 177 87 93 243 168 267 128z
m-704 -55 c-10 -88 -131 -234 -238 -289 -53 -27 -65 -22 -58 22 23 130 186
309 275 300 21 -3 24 -7 21 -33z m1776 -96 l27 -10 -46 -44 c-78 -76 -264
-154 -365 -155 -50 0 -45 16 35 96 91 93 259 148 349 113z m-2566 -49 c34 -12
73 -28 88 -37 45 -28 151 -139 151 -158 0 -32 -105 -14 -202 34 -92 45 -111
59 -151 112 -33 44 -34 56 -4 62 44 8 58 7 118 -13z m-616 -195 c77 -18 165
-66 212 -116 67 -71 66 -73 -18 -66 -121 10 -231 50 -322 115 -56 40 -58 64
-7 73 56 10 72 9 135 -6z m2017 -43 c86 -77 151 -218 152 -329 1 -34 -2 -64
-6 -68 -13 -13 -55 4 -85 35 -68 69 -161 314 -148 388 5 29 8 31 26 21 12 -6
39 -27 61 -47z m333 3 c85 -47 155 -112 209 -195 47 -71 67 -141 48 -169 -8
-11 -19 -9 -63 11 -103 47 -231 199 -272 322 -10 27 -17 53 -17 58 0 17 35 7
95 -27z m-903 10 c86 -23 156 -56 215 -104 49 -39 93 -102 93 -134 0 -62 -216
27 -320 131 -42 43 -80 95 -80 111 0 15 21 14 92 -4z m-1904 -88 c26 -13 62
-33 80 -44 45 -28 182 -152 182 -165 0 -16 -100 -2 -179 26 -104 36 -202 104
-221 151 -22 56 52 73 138 32z m3509 -9 c92 -66 161 -191 170 -305 5 -67 4
-73 -13 -73 -83 0 -234 237 -234 367 0 54 14 56 77 11z m468 -22 c87 -23 225
-112 225 -145 0 -17 -46 -24 -108 -18 -101 11 -285 120 -269 160 8 21 80 23
152 3z m-2865 -7 c0 -22 -54 -146 -81 -184 -64 -92 -146 -165 -185 -165 -21 0
-24 5 -24 40 0 47 44 140 87 185 84 88 203 161 203 124z m-532 -166 c6 -10 15
-52 22 -93 20 -118 -2 -291 -42 -334 -10 -11 -18 -23 -18 -28 0 -4 -8 -8 -19
-8 -13 0 -24 16 -40 56 -42 110 -21 283 47 387 28 41 37 45 50 20z m-293 -137
c10 -49 -22 -201 -58 -281 -34 -74 -99 -155 -127 -155 -17 0 -40 51 -40 91 0
41 29 140 58 198 26 52 135 181 152 181 5 0 12 -15 15 -34z m-620 -11 c29 -9
73 -30 97 -47 l43 -32 -35 -15 c-26 -11 -70 -15 -170 -15 -117 0 -143 3 -192
23 -32 12 -61 27 -65 33 -7 13 24 37 71 55 45 17 189 16 251 -2z m12 -440 c-5
-118 -32 -203 -82 -253 l-32 -34 -18 38 c-24 50 -31 158 -15 225 16 64 51 133
88 172 l27 28 18 -38 c14 -31 17 -57 14 -138z m-362 -27 c-21 -70 -116 -173
-202 -217 -42 -21 -103 -29 -103 -13 0 18 79 128 117 165 47 45 126 86 166 87
25 0 28 -3 22 -22z"/>
<path d="M2660 1581 c-91 -29 -195 -90 -265 -154 -62 -56 -145 -163 -145 -186
0 -20 -15 -11 -37 22 -49 72 -48 183 2 259 27 41 31 58 14 58 -15 0 -45 -37
-74 -92 -19 -36 -25 -62 -25 -113 0 -71 15 -116 55 -169 l25 -33 -25 -68 c-86
-229 -22 -472 144 -551 119 -57 343 -2 504 123 31 24 57 40 57 34 0 -27 -54
-174 -89 -241 l-39 -75 -148 -12 c-162 -12 -244 -28 -350 -68 -196 -74 -283
-172 -224 -255 41 -58 158 -76 289 -44 80 19 220 88 298 145 64 47 183 165
183 181 0 13 215 4 286 -12 32 -7 50 -8 57 -1 6 6 8 13 4 17 -11 11 -130 32
-224 39 -82 7 -112 16 -84 27 21 8 140 276 156 351 20 92 15 124 -22 133 -39
10 -73 -14 -110 -76 -45 -78 -69 -106 -120 -141 -150 -103 -341 -117 -432 -30
-75 72 -97 189 -62 336 32 130 32 131 117 96 172 -72 425 -65 594 17 70 33
153 117 175 176 25 65 17 152 -19 206 -29 45 -100 95 -156 110 -59 17 -248 11
-310 -9z m298 -38 c59 -19 118 -69 128 -110 8 -31 -2 -134 -13 -142 -5 -3 -19
-21 -32 -38 -32 -47 -136 -117 -211 -142 -83 -28 -245 -39 -328 -21 -81 17
-167 60 -166 83 4 44 128 196 213 260 149 113 284 149 409 110z m-238 -1205
c0 -13 -111 -123 -156 -155 -102 -71 -267 -133 -354 -133 -105 0 -139 44 -78
103 121 116 273 172 518 190 25 2 51 4 58 5 6 1 12 -3 12 -10z"/>
<path d="M4989 1303 c-33 -34 -119 -169 -119 -186 0 -4 -17 -44 -39 -89 -21
-46 -48 -114 -61 -153 -12 -38 -31 -95 -42 -125 -11 -30 -22 -85 -25 -122 -7
-81 8 -112 64 -127 58 -16 110 2 166 60 26 27 49 49 52 49 3 0 5 -14 5 -30 0
-71 85 -102 169 -62 35 17 41 17 66 4 58 -30 168 11 190 71 9 24 25 12 25 -19
0 -14 11 -36 25 -49 30 -31 94 -34 149 -6 35 18 40 19 62 4 51 -33 171 11 190
69 3 11 8 18 10 15 2 -2 -3 -23 -11 -47 -8 -23 -12 -46 -9 -51 3 -5 24 -9 48
-9 l43 0 13 72 c17 99 39 143 101 210 72 76 122 108 170 108 48 0 52 -22 12
-67 -35 -38 -64 -53 -102 -53 -96 0 -113 -209 -22 -263 99 -59 227 25 301 198
43 100 14 103 -36 4 -19 -39 -44 -81 -55 -92 -10 -11 -19 -24 -19 -28 0 -16
-71 -50 -96 -47 -37 4 -66 47 -72 106 -6 65 8 87 61 100 82 21 168 108 167
169 -2 68 -100 71 -198 7 -31 -20 -76 -59 -99 -86 -24 -27 -43 -46 -43 -42 0
16 105 214 163 307 33 53 82 124 109 158 27 33 48 62 46 64 -2 2 -19 6 -39 10
-31 6 -41 3 -70 -23 -38 -33 -97 -129 -189 -307 -55 -106 -135 -255 -180 -338
-51 -93 -110 -138 -160 -122 -28 9 -26 19 20 76 57 73 82 133 87 214 5 87 -8
115 -64 134 -37 13 -45 13 -89 -4 -75 -28 -149 -110 -209 -230 -76 -152 -139
-212 -199 -189 -23 9 -20 19 24 75 54 68 81 132 87 204 8 86 -12 130 -66 146
-34 10 -47 9 -88 -6 -69 -26 -149 -111 -202 -214 -63 -126 -107 -188 -148
-209 -29 -16 -36 -15 -61 8 -49 46 -17 166 71 267 80 92 127 163 187 280 52
103 71 170 60 213 -5 21 -12 25 -50 28 -41 3 -49 -1 -81 -35z m91 -52 c0 -55
-199 -408 -232 -411 -15 -1 137 323 189 402 31 45 43 48 43 9z m244 -363 c12
-33 -4 -104 -41 -179 -20 -43 -26 -49 -36 -37 -19 24 -43 28 -67 11 -20 -14
-22 -22 -16 -74 5 -56 5 -59 -19 -65 -14 -3 -36 -3 -50 0 -25 6 -30 22 -25 86
3 47 80 190 129 241 42 44 53 50 82 47 26 -2 36 -9 43 -30z m444 20 c26 -26 6
-123 -44 -220 -13 -25 -17 -28 -27 -15 -35 42 -87 17 -87 -42 0 -20 6 -43 13
-50 10 -10 8 -15 -8 -24 -60 -36 -95 -24 -95 32 0 86 81 251 148 304 37 29 80
35 100 15z"/>
<path d="M4498 1280 c-31 -27 -62 -73 -102 -150 l-57 -110 -45 0 c-37 0 -44
-3 -44 -20 0 -16 7 -20 35 -20 19 0 35 -2 35 -4 0 -2 -16 -46 -35 -97 -19 -52
-35 -99 -35 -105 0 -20 -54 -119 -92 -171 -61 -81 -93 -83 -82 -5 6 47 64 180
103 238 l21 31 -39 7 c-22 3 -47 3 -55 0 -14 -5 -118 -168 -137 -214 -4 -8
-27 -37 -52 -63 -37 -40 -50 -48 -73 -45 -45 5 -45 53 0 142 73 150 211 275
268 245 12 -6 27 -18 31 -25 13 -23 39 -17 35 7 -9 59 -108 84 -200 49 -94
-35 -169 -120 -227 -257 -46 -107 -125 -183 -190 -183 -30 0 -61 43 -60 81 3
82 8 88 91 116 86 28 149 78 174 138 28 68 11 108 -53 121 -61 12 -188 -71
-227 -149 -9 -18 -21 -39 -25 -47 -5 -8 -22 -42 -37 -75 -55 -117 -135 -201
-151 -159 -10 25 16 103 72 217 30 60 55 123 55 139 l0 28 -87 -6 c-74 -4 -85
-3 -72 8 24 20 49 73 49 106 0 42 -21 64 -55 60 -28 -3 -30 -7 -55 -108 -41
-160 -91 -276 -180 -417 -8 -12 -11 -25 -7 -30 18 -17 93 93 141 207 56 130
56 130 82 130 36 0 64 -17 64 -39 0 -10 -20 -56 -44 -102 -51 -96 -65 -154
-46 -199 32 -78 121 -64 190 31 27 38 40 41 40 8 0 -29 49 -78 90 -89 69 -19
171 21 201 77 16 30 29 29 29 -1 0 -13 9 -35 21 -50 43 -54 125 -27 192 65
l32 44 5 -47 c3 -26 14 -56 24 -67 40 -44 122 -14 168 61 26 42 38 48 38 18 0
-29 27 -78 49 -90 47 -25 113 -6 163 47 34 36 118 182 118 205 0 32 -14 18
-60 -58 -63 -107 -109 -154 -148 -154 -43 0 -49 30 -28 128 13 60 24 84 54
117 68 76 90 103 118 144 24 38 30 41 70 41 37 0 44 3 44 20 0 16 -7 20 -30
20 -29 0 -42 21 -21 35 16 10 71 163 71 198 0 38 -25 67 -57 67 -12 0 -41 -18
-65 -40z m77 -67 c-4 -20 -23 -71 -43 -112 -31 -64 -41 -76 -65 -79 -15 -2
-27 1 -27 5 0 5 19 47 41 93 60 123 109 171 94 93z m-117 -251 c-7 -9 -30 -41
-52 -70 -21 -29 -40 -51 -42 -49 -3 2 7 28 21 58 14 30 25 60 25 67 0 7 13 12
31 12 27 0 29 -2 17 -18z m-731 -58 c-6 -57 -50 -107 -125 -140 -59 -27 -62
-28 -62 -15 0 10 67 109 89 131 28 28 84 70 94 70 6 0 7 -19 4 -46z"/>
<path d="M5420 428 c0 -2 -15 -70 -34 -153 -18 -82 -30 -154 -25 -159 19 -21
35 7 53 94 10 50 22 88 27 83 4 -4 23 -47 41 -95 18 -48 37 -87 42 -88 9 -1
76 155 76 178 0 6 4 12 9 12 5 0 16 -40 26 -89 11 -56 23 -92 31 -95 31 -12
28 15 -33 292 -3 12 -9 22 -13 22 -4 0 -22 -41 -40 -91 -55 -155 -53 -153 -87
-62 -17 43 -36 95 -44 116 -7 20 -17 37 -21 37 -4 0 -8 -1 -8 -2z"/>
<path d="M3272 268 l3 -153 52 -3 c64 -4 120 18 133 53 12 32 3 79 -20 100
-16 14 -16 19 -4 44 11 21 11 35 3 58 -13 38 -45 53 -115 53 l-55 0 3 -152z
m123 72 c0 -35 0 -35 -47 -38 l-48 -3 0 34 c0 44 6 49 55 45 39 -3 40 -4 40
-38z m16 -101 c40 -40 1 -92 -66 -87 -39 3 -40 4 -43 42 -5 57 2 66 48 66 27
0 47 -7 61 -21z"/>
<path d="M3590 271 c0 -145 1 -151 20 -151 20 0 20 5 18 147 -3 131 -5 148
-20 151 -17 3 -18 -9 -18 -147z"/>
<path d="M3829 397 c-48 -32 -71 -81 -66 -143 2 -29 11 -61 23 -77 26 -35 85
-67 123 -67 38 0 99 24 121 48 65 72 49 192 -32 242 -47 28 -125 27 -169 -3z
m167 -51 c26 -26 34 -42 34 -69 0 -53 -16 -85 -52 -107 -103 -63 -218 43 -163
150 21 42 53 60 103 60 37 0 50 -6 78 -34z"/>
<path d="M4264 401 c-35 -21 -74 -93 -74 -134 0 -40 23 -88 58 -121 57 -53
162 -45 214 18 9 11 17 26 18 33 0 22 -23 26 -39 7 -62 -75 -157 -70 -196 12
-36 76 18 164 102 164 30 0 93 -34 93 -50 0 -5 9 -10 20 -10 37 0 16 47 -37
82 -38 24 -118 24 -159 -1z"/>
<path d="M4690 413 c-78 -29 -116 -155 -70 -231 22 -37 88 -71 134 -72 50 0
114 38 136 81 56 109 -15 230 -134 228 -28 0 -58 -3 -66 -6z m145 -68 c41 -42
47 -92 16 -139 -38 -57 -101 -71 -159 -36 -52 32 -68 104 -35 160 21 36 47 48
100 49 36 1 48 -5 78 -34z"/>
<path d="M5073 408 c-33 -16 -48 -61 -33 -98 12 -28 44 -45 138 -74 12 -4 27
-16 33 -28 27 -50 -81 -82 -129 -38 -22 21 -52 27 -52 11 0 -43 48 -71 120
-71 44 0 56 5 81 29 56 56 27 117 -68 147 -93 28 -116 59 -68 90 29 19 90 12
99 -11 7 -19 46 -20 46 -1 0 8 -12 24 -26 35 -29 23 -102 28 -141 9z"/>
<path d="M5812 268 l3 -153 70 -3 c82 -4 115 3 115 23 0 12 -15 15 -75 15
l-75 0 0 48 0 49 67 2 c71 2 87 7 78 22 -4 5 -37 9 -76 9 l-69 0 0 50 0 49 73
3 c56 2 72 6 72 18 0 12 -18 16 -93 18 l-93 3 3 -153z"/>
<path d="M6120 400 c0 -16 7 -20 35 -20 l34 0 3 -132 c3 -110 6 -133 18 -133
12 0 15 23 18 132 l3 132 32 3 c21 2 33 9 35 21 3 15 -6 17 -87 17 -84 0 -91
-1 -91 -20z"/>
<path d="M6422 268 c3 -128 5 -153 18 -153 13 0 15 25 18 153 2 148 2 152 -18
152 -20 0 -20 -4 -18 -152z"/>
<path d="M6664 401 c-46 -28 -78 -100 -69 -158 9 -64 64 -122 122 -130 23 -3
53 -3 67 1 31 8 96 63 96 81 0 23 -18 27 -38 7 -70 -70 -145 -69 -193 4 -49
74 7 174 98 174 29 0 72 -23 86 -47 11 -17 47 -17 47 1 0 19 -45 64 -75 76
-42 16 -107 12 -141 -9z"/>
<path d="M7044 408 c-23 -11 -44 -48 -44 -76 1 -32 28 -54 102 -81 58 -21 74
-31 76 -49 5 -35 -15 -52 -64 -52 -32 0 -49 6 -61 20 -17 20 -44 26 -56 14
-11 -11 23 -52 54 -64 41 -18 126 -8 151 17 31 32 29 90 -6 119 -15 13 -37 24
-49 24 -12 1 -38 9 -57 18 -69 34 -42 102 35 88 18 -4 36 -13 39 -21 7 -19 46
-20 46 -1 0 8 -12 24 -26 35 -29 23 -102 28 -140 9z"/>
<path d="M7439 376 c-2 -2 -3 -63 -1 -135 3 -118 5 -130 19 -122 10 5 28 5 45
-1 56 -20 110 42 92 104 -13 45 -53 67 -94 51 l-30 -11 0 59 c0 42 -4 59 -13
59 -8 0 -16 -2 -18 -4z m121 -176 c0 -32 -17 -50 -46 -50 -30 0 -48 24 -40 55
13 52 86 48 86 -5z"/>
<path d="M8077 353 c-4 -3 -7 -58 -7 -120 0 -103 2 -114 17 -111 14 3 17 12
15 46 -4 54 9 54 50 -3 23 -30 40 -44 57 -45 25 0 24 5 -23 58 l-20 22 23 16
c49 35 49 104 0 129 -29 15 -100 20 -112 8z m101 -35 c7 -7 12 -21 12 -33 0
-30 -19 -45 -57 -45 -30 0 -33 3 -33 29 0 16 3 36 6 45 7 19 55 21 72 4z"/>
<path d="M8496 333 c-3 -3 -6 -19 -6 -35 0 -16 -4 -27 -8 -24 -4 2 -14 1 -21
-4 -16 -9 -6 -30 14 -30 10 0 15 -17 17 -62 4 -81 22 -82 26 -2 2 52 6 63 22
67 26 7 26 27 0 34 -13 3 -20 14 -20 29 0 24 -12 38 -24 27z"/>
<path d="M8330 309 c0 -24 23 -21 28 4 2 10 -3 17 -12 17 -10 0 -16 -9 -16
-21z"/>
<path d="M7685 270 c-3 -5 7 -35 24 -67 l29 -58 -24 -49 c-16 -34 -21 -53 -14
-60 7 -7 14 -6 21 1 17 17 108 231 101 237 -13 14 -24 3 -42 -39 -11 -25 -22
-45 -25 -45 -3 0 -13 18 -22 40 -18 40 -38 57 -48 40z"/>
<path d="M8336 273 c-3 -3 -6 -39 -6 -80 0 -58 3 -73 15 -73 12 0 15 15 15 74
0 69 -8 95 -24 79z"/>
<path d="M8665 255 c-28 -28 -32 -63 -10 -105 17 -32 36 -39 83 -29 17 4 35 3
38 -2 14 -23 24 8 24 76 0 69 -10 99 -25 75 -4 -7 -12 -7 -25 0 -31 16 -59 12
-85 -15z m100 -44 c9 -28 -15 -61 -45 -61 -33 0 -53 31 -40 64 15 41 71 39 85
-3z"/>
</g>
</svg>
