<svg id="Layer_1_1_" enable-background="new 0 0 64 64" height="512" viewBox="0 0 64 64" width="512" xmlns="http://www.w3.org/2000/svg"><path d="m8.412 36.557c.582 2.911 2.987 5.049 5.88 5.377-.108-.313-.228-.622-.325-.938-.906-2.943-1.308-5.957-1.44-8.995h-.462c-2.361 0-4.131 2.16-3.668 4.474z" fill="#fbc188"/><path d="m48.771 42h.178c2.629 0 5.158-1.65 6.214-4.059 1.132-2.583-.006-5.941-3.225-5.941l-1.464.033c-.099 2.982-.461 6.196-1.362 9.019-.103.32-.228.632-.341.948z" fill="#fbc188"/><path d="m39.85 54.922c-3.752 3.175-9.118 4.046-13.915 1.814-1.131-.527-2.154-1.263-3.095-2.083-.643-.56-1.25-1.157-1.84-1.771v9.118h21v-9.113c-.686.71-1.395 1.397-2.15 2.035z" fill="#fbc188"/><path d="m31.078 18.28c-2.891 1.222-5.842 2.222-8.577 2.72-11 2-9.975 11-9.975 11 .132 3.038.534 6.052 1.44 8.995.097.317.217.625.325.938 1.688 4.887 4.649 9.324 8.549 12.72.941.82 1.964 1.556 3.095 2.083 4.796 2.232 10.163 1.361 13.915-1.814 4.052-3.429 7.139-7.927 8.921-12.922.113-.316.238-.628.34-.948.901-2.824 1.263-6.038 1.362-9.019-1.608-12.116-17.641-13.624-19.395-13.753z" fill="#fbc997"/><path d="m50.474 32.033s4.805-14.676-2.483-23.158c-.146.102-8.256 5.746-16.913 9.405 1.754.129 17.787 1.637 19.396 13.753z" fill="#47648f"/><path d="m32 3.003c-28 0-19.474 28.997-19.474 28.997s-1.026-9 9.974-11c2.735-.497 5.686-1.498 8.577-2.72 8.657-3.659 16.767-9.303 16.913-9.405-2.959-3.444-7.903-5.872-15.99-5.872z" fill="#47648f"/><path d="m38.369 38.972c-1.733.043-3.239-.635-4.331-1.966-.038 2.899 3.009 6.063 5.547 7.399 2.243 1.18 4.64.511 6.414-1.165 1.28-1.21 1.751-3.676.064-5.332-1.246-1.224-2.584-.302-3.878.185-1.22.458-2.502.846-3.816.879z" fill="#758f35"/><path d="m22.414 44.404c2.539-1.336 5.586-4.5 5.547-7.399-1.092 1.331-2.598 2.01-4.331 1.966-1.314-.033-2.595-.42-3.817-.88-1.294-.487-2.632-1.408-3.878-.185-1.686 1.657-1.215 4.124.065 5.333 1.774 1.676 4.171 2.345 6.414 1.165z" fill="#758f35"/><path d="m45.796 17.039c-.679-.311-.702-1.264-.044-1.619l4.692-2.527c-.424-1.008-.95-1.982-1.595-2.902-2.096 1.369-6.175 3.913-10.766 6.133-.864.418-.692 1.688.249 1.877 4.12.828 10.752 3.015 13.316 8.675.211-1.455.37-3.113.38-4.867-2.184-2.581-4.621-4.033-6.232-4.77z" fill="#345485"/><path d="m11.801 22s1-5 7-7 10-2 11-4-2-4-4-2c-4 4-14 5-14 13z" fill="#345485"/><path d="m31.078 18.28c8.959-2.841 16.767-9.303 16.913-9.405-2.858-3.326-7.574-5.697-15.174-5.857 4.753 1.383 11.934 3.919 9.183 5.982-3.31 2.483-23.728 9.074-30.676 14.674.104 3.505.719 6.414 1.027 7.663.049.023.099.044.149.066-.001-2.042 10-10.403 18.578-13.123z" fill="#345485"/><path d="m32 52c-1.815 0-3.63-1.277-5.382-1.766-.515-.144-.794-.705-.625-1.212l.033-.099c.162-.486 1.17-.604 1.17-.604h9.608s1.008.118 1.17.604l.033.099c.169.507-.11 1.068-.625 1.212-1.752.489-3.567 1.766-5.382 1.766z" fill="#fbc188"/><g fill="#8aa83e"><path d="m39 42.879s1.332.537 2.838.205 2.325-1.165 2.337-.082c.012 1.084-2.088 1.604-5.175-.123z"/><circle cx="44.952" cy="42.465" r=".371"/><path d="m23.324 42.879s-1.332.537-2.838.205-2.325-1.165-2.337-.082c-.012 1.084 2.087 1.604 5.175-.123z"/><circle cx="17.371" cy="42.465" r=".371"/></g><path d="m27.894 32.798c-.331-.331-.847-.364-1.231-.096-.722.503-2.02 1.202-3.663 1.202-1.63 0-2.938-.705-3.664-1.208-.383-.266-.897-.23-1.227.099l-.072.072c-.416.416-.365 1.106.116 1.444.004.003.008.005.012.008-.16.124-.365.24-.638.323-1.011.306-1.527.306-1.527.306s1.862.334 2.736-.264c.201.12.42.24.659.357-.083.067-.175.133-.283.195-.915.528-1.417.645-1.417.645s1.406-.073 2.252-.594c.289.118.595.226.922.317-.098.084-.209.167-.343.244-.969.559-1.501.683-1.501.683s1.721-.089 2.576-.76c.441.08.906.132 1.4.132 2.181 0 3.887-.918 4.847-1.593.481-.338.532-1.029.116-1.444z" fill="#a67112"/><path d="m45.824 34.948s-.516 0-1.527-.306c-.228-.069-.406-.162-.553-.262.033-.022.072-.046.103-.068.481-.338.532-1.029.116-1.444l-.069-.069c-.331-.331-.847-.364-1.231-.096-.722.503-2.02 1.202-3.663 1.202-1.631 0-2.939-.705-3.666-1.21-.383-.266-.899-.23-1.228.101l-.072.072c-.414.416-.362 1.105.117 1.443.959.675 2.666 1.595 4.848 1.595.44 0 .854-.045 1.253-.11.864.651 2.546.738 2.546.738s-.532-.125-1.501-.683c-.116-.067-.216-.138-.305-.21.338-.088.66-.19.958-.308.852.481 2.178.551 2.178.551s-.502-.118-1.417-.645c-.079-.046-.143-.095-.208-.143.246-.117.468-.238.677-.359.906.518 2.644.211 2.644.211z" fill="#a67112"/></svg>