<svg id="Layer_1_1_" enable-background="new 0 0 64 64" height="512" viewBox="0 0 64 64" width="512" xmlns="http://www.w3.org/2000/svg"><path d="m34.157 32.233c-2.473-1.897-5.481-2.768-8.524-3.232-3.031-.463-6.162-.591-9.137.153-2.054.514-3.989 1.504-5.576 2.911-.795.705-1.501 1.512-2.089 2.398-1.318 1.985-2.123 5.008-.481 7.11.801 1.026 2.011 1.672 3.24 2.037 1.305.387 2.607.798 3.904 1.016 4.568.766 9.385.333 13.784-1.082 4.519-1.453 8.122-3.275 11.723-6.451-2.827-.764-4.626-3.159-6.844-4.86z" fill="#fbc997"/><path d="m9.431 34.612c.726-.777 1.555-1.456 2.456-2.02 1.797-1.125 3.869-1.782 5.98-1.949 3.057-.242 6.123.402 9.036 1.359 2.925.961 5.747 2.317 7.873 4.597.936 1.003 1.745 2.153 2.639 3.209 1.215-.786 2.401-1.671 3.584-2.714-2.826-.764-4.625-3.159-6.843-4.86-2.473-1.897-5.481-2.768-8.524-3.232-3.031-.463-6.162-.591-9.137.153-2.054.514-3.989 1.504-5.576 2.911-.795.705-1.5 1.512-2.089 2.398-.665 1.002-1.199 2.268-1.354 3.548.352-1.283 1.106-2.493 1.955-3.4z" fill="#fbc188"/><path d="m61 54v-4l-2-2-2 2z" fill="#a1a1a1"/><path d="m39.059 18.275c-4.094-2.62-10.821-2.982-15.486-2.224-6.827 1.108-12.36 4.012-18.922 6.112-1.091.349-1.724 1.485-1.446 2.596.307 1.228 1.594 1.935 2.795 1.534 4.064-1.354 6.987-2.709 11.051-4.064 3.764-1.255 7.43-2.453 11.197-2.982 2.79-.392 5.636-.419 8.619.177 0 0 6.162 1.232 6.162 1.232z" fill="#634627"/><path d="m40 25-.172-.172c-1.811-1.811-4.267-2.828-6.828-2.828l-1 1-1 1c0 2.561 1.017 5.017 2.828 6.828l.172.172 21 21 2-2 2-2 2-2z" fill="#bfbfbf"/><path d="m40 33c-3.337-3.337-4.442-7.999-4.812-10.738-.712-.167-1.444-.262-2.188-.262l-1 1-1 1c0 2.561 1.017 5.017 2.828 6.828l.172.172 21 21 2-2c-4.048-4.048-13.166-13.166-17-17z" fill="#b8b8b8"/><path d="m39.386 48.615.627-1.898c-2.899-.959-3.707-3.108-3.934-4.233.421-.168.838-.348 1.249-.546.219-.106.438-.22.657-.342.898-.501 1.132-1.693.521-2.52l-.1-.136c-.673.497-1.309.889-1.944 1.194-1.478.712-3.119 1.206-4.708 1.685-.567.171-1.132.341-1.688.52-4.672 1.503-9.574 1.889-14.183 1.116-3.033-.509-6.337-1.354-7.842-3.761-.994.622-1.088 2.028-.196 2.789.784.668 1.691 1.186 2.662 1.597-.12.821-.472 2.171-1.512 2.691l.895 1.789c1.665-.833 2.295-2.591 2.533-3.821.427.121.856.23 1.289.326-.108.916-.482 2.713-1.788 4.019l1.414 1.414c1.651-1.651 2.175-3.82 2.341-5.056.679.111 1.364.191 2.053.255.1 1.267.082 3.874-1.508 5.464l1.414 1.414c2.054-2.054 2.207-5.091 2.108-6.769.284.008.566.035.851.035.252 0 .507-.024.76-.03.377 1.17.944 3.879-.965 6.007l1.488 1.336c2.332-2.602 1.991-5.714 1.53-7.447.412-.036.824-.095 1.236-.147.121 2.036.493 6.217 1.559 7.96l1.707-1.043c-.724-1.185-1.142-4.755-1.281-7.23.31-.059.62-.117.929-.184.078 1.852.634 5.199 3.415 7.567l1.297-1.523c-2.424-2.064-2.714-5.213-2.72-6.55.375-.106.754-.195 1.126-.315.024-.008.049-.015.073-.022.305 1.919 1.36 5.388 5.037 6.913l.766-1.848c-2.976-1.235-3.696-4.25-3.871-5.658.497-.15.996-.307 1.497-.469.457 1.87 1.87 4.355 5.206 5.457z" fill="#634627"/><path d="m27.707 17.293 3.586 6.414 1.414-1.414z" fill="#737373"/></svg>